<svg xmlns="http://www.w3.org/2000/svg" viewBox="0 0 550 550">
  <circle cx="275" cy="275" r="275" fill="white"/>
  <path d="m315.38412,47.9928l216.30399,393.8403l-38.40601,67.39102l-254.73882,-461.73161l76.84084,0.50029z" fill="#F27D35"/>
  <path d="m261.50781,137.69832l-91.13748,166.00529l-76.71956,-1.05817l139.6825,-253.43911l28.17455,88.49198z" fill="#65256C"/>
  <path d="m181.35777,383.73001l50.77412,1.39972l5.1783,16.98657l32.27513,20.1058l43.38623,-19.04761l35.44971,40.21164l-72.48672,34.92062l-72.48677,-33.86243l-22.09,-60.71432z" fill="#6BCFE2"/>
  <path d="m324.03186,376.34326l-12.17386,27.52829l37.25067,39.96173l-25.07681,-67.49002z" fill="#0E5D8A"/>
  <path d="m348.67493,443.65802l-38.00299,-104.13232l-35.78497,-16.81265l-1.27112,-55.181l73.81497,30.49167l30.83005,66.79843l-29.58594,78.83588z" fill="#F78032"/>
  <path d="m273.90698,267.89606l-59.42616,24.72684l33.87978,40.98358l26.50272,-11.20218l-0.95633,-54.50824z" fill="#902C66"/>
  <path d="m78.9682,329.76199l125.2648,1.98401l28.04199,53.439l-104.76199,-2.116l-70.8993,129.10001l-38.0952,-71.42801l60.4497,-110.979z" fill="#334FA0"/>
</svg>